<svg xmlns="http://www.w3.org/2000/svg" xmlns:xlink="http://www.w3.org/1999/xlink" width="500" zoomAndPan="magnify" viewBox="0 0 375 374.999991" height="500" preserveAspectRatio="xMidYMid meet" version="1.2"><defs><clipPath id="a06becdc2b"><path d="M 0 70.109375 L 214.578125 70.109375 L 214.578125 277.277344 L 0 277.277344 Z M 0 70.109375 "/></clipPath><clipPath id="dd1764042c"><path d="M 17.25 70.109375 L 197.324219 70.109375 C 201.898438 70.109375 206.285156 71.925781 209.519531 75.160156 C 212.757812 78.394531 214.574219 82.78125 214.574219 87.359375 L 214.574219 259.910156 C 214.574219 264.484375 212.757812 268.871094 209.519531 272.105469 C 206.285156 275.339844 201.898438 277.160156 197.324219 277.160156 L 17.25 277.160156 C 12.675781 277.160156 8.285156 275.339844 5.050781 272.105469 C 1.816406 268.871094 0 264.484375 0 259.910156 L 0 87.359375 C 0 82.78125 1.816406 78.394531 5.050781 75.160156 C 8.285156 71.925781 12.675781 70.109375 17.25 70.109375 Z M 17.25 70.109375 "/></clipPath><clipPath id="c2cff89f28"><path d="M 237.761719 70.109375 L 306.308594 70.109375 L 306.308594 138.65625 L 237.761719 138.65625 Z M 237.761719 70.109375 "/></clipPath><clipPath id="3fc0a1b403"><path d="M 272.035156 70.109375 C 253.105469 70.109375 237.761719 85.453125 237.761719 104.382812 C 237.761719 123.3125 253.105469 138.65625 272.035156 138.65625 C 290.964844 138.65625 306.308594 123.3125 306.308594 104.382812 C 306.308594 85.453125 290.964844 70.109375 272.035156 70.109375 Z M 272.035156 70.109375 "/></clipPath><clipPath id="b2c714aed5"><path d="M 237.761719 208.550781 L 306.308594 208.550781 L 306.308594 277.101562 L 237.761719 277.101562 Z M 237.761719 208.550781 "/></clipPath><clipPath id="f7e46d8789"><path d="M 272.035156 208.550781 C 253.105469 208.550781 237.761719 223.894531 237.761719 242.824219 C 237.761719 261.753906 253.105469 277.101562 272.035156 277.101562 C 290.964844 277.101562 306.308594 261.753906 306.308594 242.824219 C 306.308594 223.894531 290.964844 208.550781 272.035156 208.550781 Z M 272.035156 208.550781 "/></clipPath><clipPath id="2c33413be9"><path d="M 306.378906 139.328125 L 374.929688 139.328125 L 374.929688 207.878906 L 306.378906 207.878906 Z M 306.378906 139.328125 "/></clipPath><clipPath id="03b2c81398"><path d="M 340.65625 139.328125 C 321.726562 139.328125 306.378906 154.675781 306.378906 173.605469 C 306.378906 192.53125 321.726562 207.878906 340.65625 207.878906 C 359.585938 207.878906 374.929688 192.53125 374.929688 173.605469 C 374.929688 154.675781 359.585938 139.328125 340.65625 139.328125 Z M 340.65625 139.328125 "/></clipPath><clipPath id="e6d955d724"><path d="M 20.683594 114.867188 L 89.300781 114.867188 L 89.300781 183.484375 L 20.683594 183.484375 Z M 20.683594 114.867188 "/></clipPath><clipPath id="a423739769"><path d="M 54.992188 114.867188 C 36.042969 114.867188 20.683594 130.226562 20.683594 149.175781 C 20.683594 168.125 36.042969 183.484375 54.992188 183.484375 C 73.941406 183.484375 89.300781 168.125 89.300781 149.175781 C 89.300781 130.226562 73.941406 114.867188 54.992188 114.867188 Z M 54.992188 114.867188 "/></clipPath><clipPath id="6a4ae2a215"><path d="M 20.683594 114.867188 L 89.230469 114.867188 L 89.230469 183.414062 L 20.683594 183.414062 Z M 20.683594 114.867188 "/></clipPath><clipPath id="fb680d7ef1"><path d="M 54.957031 114.867188 C 36.027344 114.867188 20.683594 130.210938 20.683594 149.140625 C 20.683594 168.070312 36.027344 183.414062 54.957031 183.414062 C 73.886719 183.414062 89.230469 168.070312 89.230469 149.140625 C 89.230469 130.210938 73.886719 114.867188 54.957031 114.867188 Z M 54.957031 114.867188 "/></clipPath><clipPath id="2a5ac533ee"><path d="M 116.925781 114.867188 L 185.542969 114.867188 L 185.542969 183.484375 L 116.925781 183.484375 Z M 116.925781 114.867188 "/></clipPath><clipPath id="8a065480ae"><path d="M 151.234375 114.867188 C 132.285156 114.867188 116.925781 130.226562 116.925781 149.175781 C 116.925781 168.125 132.285156 183.484375 151.234375 183.484375 C 170.183594 183.484375 185.542969 168.125 185.542969 149.175781 C 185.542969 130.226562 170.183594 114.867188 151.234375 114.867188 Z M 151.234375 114.867188 "/></clipPath><clipPath id="779c304cb8"><path d="M 116.925781 114.867188 L 185.472656 114.867188 L 185.472656 183.414062 L 116.925781 183.414062 Z M 116.925781 114.867188 "/></clipPath><clipPath id="c28beb061e"><path d="M 151.199219 114.867188 C 132.269531 114.867188 116.925781 130.210938 116.925781 149.140625 C 116.925781 168.070312 132.269531 183.414062 151.199219 183.414062 C 170.128906 183.414062 185.472656 168.070312 185.472656 149.140625 C 185.472656 130.210938 170.128906 114.867188 151.199219 114.867188 Z M 151.199219 114.867188 "/></clipPath></defs><g id="4094640e62"><rect x="0" width="375" y="0" height="374.999991" style="fill:#ffffff;fill-opacity:1;stroke:none;"/><rect x="0" width="375" y="0" height="374.999991" style="fill:#fefefe;fill-opacity:1;stroke:none;"/><path style="fill:none;stroke-width:6;stroke-linecap:butt;stroke-linejoin:miter;stroke:#bc0030;stroke-opacity:1;stroke-miterlimit:4;" d="M 60.260377 3.000818 L 0.000380397 3.000818 " transform="matrix(1.516994,0,0,1.516994,215.640048,169.06887)"/><g clip-rule="nonzero" clip-path="url(#a06becdc2b)"><g clip-rule="nonzero" clip-path="url(#dd1764042c)"><path style="fill:none;stroke-width:3.938778;stroke-linecap:butt;stroke-linejoin:miter;stroke:#bc0030;stroke-opacity:1;stroke-miterlimit:4;" d="M 11.323984 0.00049235 L 129.536049 0.00049235 C 132.538854 0.00049235 135.418573 1.192896 137.541821 3.316143 C 139.667633 5.439391 140.860036 8.31911 140.860036 11.324479 L 140.860036 124.597686 C 140.860036 127.600491 139.667633 130.48021 137.541821 132.603457 C 135.418573 134.726705 132.538854 135.921673 129.536049 135.921673 L 11.323984 135.921673 C 8.321179 135.921673 5.438896 134.726705 3.315648 132.603457 C 1.192401 130.48021 -0.00000295408 127.600491 -0.00000295408 124.597686 L -0.00000295408 11.324479 C -0.00000295408 8.31911 1.192401 5.439391 3.315648 3.316143 C 5.438896 1.192896 8.321179 0.00049235 11.323984 0.00049235 Z M 11.323984 0.00049235 " transform="matrix(1.523315,0,0,1.523315,0.0000045,70.108625)"/></g></g><g clip-rule="nonzero" clip-path="url(#c2cff89f28)"><g clip-rule="nonzero" clip-path="url(#3fc0a1b403)"><path style="fill:none;stroke-width:3.938778;stroke-linecap:butt;stroke-linejoin:miter;stroke:#bc0030;stroke-opacity:1;stroke-miterlimit:4;" d="M 22.515465 0.00122424 C 10.080195 0.00122424 0.000595079 10.080824 0.000595079 22.516094 C 0.000595079 34.951364 10.080195 45.030964 22.515465 45.030964 C 34.950735 45.030964 45.030335 34.951364 45.030335 22.516094 C 45.030335 10.080824 34.950735 0.00122424 22.515465 0.00122424 Z M 22.515465 0.00122424 " transform="matrix(1.522258,0,0,1.522258,237.760813,70.107511)"/></g></g><g clip-rule="nonzero" clip-path="url(#b2c714aed5)"><g clip-rule="nonzero" clip-path="url(#f7e46d8789)"><path style="fill:none;stroke-width:3.938778;stroke-linecap:butt;stroke-linejoin:miter;stroke:#bc0030;stroke-opacity:1;stroke-miterlimit:4;" d="M 22.515465 0.00016958 C 10.080195 0.00016958 0.000595079 10.079769 0.000595079 22.515039 C 0.000595079 34.950309 10.080195 45.032475 22.515465 45.032475 C 34.950735 45.032475 45.030335 34.950309 45.030335 22.515039 C 45.030335 10.079769 34.950735 0.00016958 22.515465 0.00016958 Z M 22.515465 0.00016958 " transform="matrix(1.522258,0,0,1.522258,237.760813,208.550523)"/></g></g><g clip-rule="nonzero" clip-path="url(#2c33413be9)"><g clip-rule="nonzero" clip-path="url(#03b2c81398)"><path style="fill:none;stroke-width:3.938778;stroke-linecap:butt;stroke-linejoin:miter;stroke:#bc0030;stroke-opacity:1;stroke-miterlimit:4;" d="M 22.516452 -0.00058456 C 10.081182 -0.00058456 -0.000983625 10.081581 -0.000983625 22.516851 C -0.000983625 34.949555 10.081182 45.031721 22.516452 45.031721 C 34.951722 45.031721 45.031322 34.949555 45.031322 22.516851 C 45.031322 10.081581 34.951722 -0.00058456 22.516452 -0.00058456 Z M 22.516452 -0.00058456 " transform="matrix(1.522258,0,0,1.522258,306.380404,139.329015)"/></g></g><g clip-rule="nonzero" clip-path="url(#e6d955d724)"><g clip-rule="nonzero" clip-path="url(#a423739769)"><path style=" stroke:none;fill-rule:nonzero;fill:#bc0030;fill-opacity:1;" d="M 20.683594 114.867188 L 89.300781 114.867188 L 89.300781 183.484375 L 20.683594 183.484375 Z M 20.683594 114.867188 "/></g></g><g clip-rule="nonzero" clip-path="url(#6a4ae2a215)"><g clip-rule="nonzero" clip-path="url(#fb680d7ef1)"><path style="fill:none;stroke-width:3.938778;stroke-linecap:butt;stroke-linejoin:miter;stroke:#bc0030;stroke-opacity:1;stroke-miterlimit:4;" d="M 22.515795 0.000284211 C 10.080525 0.000284211 0.000925394 10.079884 0.000925394 22.515154 C 0.000925394 34.950424 10.080525 45.030024 22.515795 45.030024 C 34.951065 45.030024 45.030665 34.950424 45.030665 22.515154 C 45.030665 10.079884 34.951065 0.000284211 22.515795 0.000284211 Z M 22.515795 0.000284211 " transform="matrix(1.522258,0,0,1.522258,20.682185,114.866755)"/></g></g><g clip-rule="nonzero" clip-path="url(#2a5ac533ee)"><g clip-rule="nonzero" clip-path="url(#8a065480ae)"><path style=" stroke:none;fill-rule:nonzero;fill:#bc0030;fill-opacity:1;" d="M 116.925781 114.867188 L 185.542969 114.867188 L 185.542969 183.484375 L 116.925781 183.484375 Z M 116.925781 114.867188 "/></g></g><g clip-rule="nonzero" clip-path="url(#779c304cb8)"><g clip-rule="nonzero" clip-path="url(#c28beb061e)"><path style="fill:none;stroke-width:3.938778;stroke-linecap:butt;stroke-linejoin:miter;stroke:#bc0030;stroke-opacity:1;stroke-miterlimit:4;" d="M 22.515938 0.000284211 C 10.080668 0.000284211 0.00106869 10.079884 0.00106869 22.515154 C 0.00106869 34.950424 10.080668 45.030024 22.515938 45.030024 C 34.951208 45.030024 45.030808 34.950424 45.030808 22.515154 C 45.030808 10.079884 34.951208 0.000284211 22.515938 0.000284211 Z M 22.515938 0.000284211 " transform="matrix(1.522258,0,0,1.522258,116.924154,114.866755)"/></g></g><path style="fill:none;stroke-width:6;stroke-linecap:butt;stroke-linejoin:miter;stroke:#bc0030;stroke-opacity:1;stroke-miterlimit:4;" d="M 37.735899 -0.000349495 L 37.735899 11.459546 C 37.735899 14.498252 36.528109 17.413871 34.379219 19.562761 C 32.230328 21.711652 29.317273 22.919441 26.276003 22.919441 L -0.000467473 22.919441 " transform="matrix(1.523315,0,0,1.523315,214.58665,138.727095)"/><path style="fill:none;stroke-width:6;stroke-linecap:butt;stroke-linejoin:miter;stroke:#bc0030;stroke-opacity:1;stroke-miterlimit:4;" d="M 37.735899 25.918415 L 37.735899 14.458519 C 37.735899 8.129806 32.604717 3.001188 26.276003 3.001188 L -0.000467473 3.001188 " transform="matrix(1.523315,0,0,1.523315,214.58665,169.06887)"/></g></svg>